<svg xmlns="http://www.w3.org/2000/svg" viewBox="0 0 32 32">
  <defs>
    <linearGradient id="g" x1="0%" y1="0%" x2="100%" y2="100%">
      <stop offset="0%" stop-color="#06b6d4"/>
      <stop offset="100%" stop-color="#6366f1"/>
    </linearGradient>
  </defs>
  <rect width="32" height="32" rx="8" fill="#0a0a0f"/>
  <path d="M18 5c-3 0-5.5 1.2-6.5 3.5s-.5 5 1.5 7c1.3 1.2 3 2 5 2.5 2 .5 3.5 1 4.5 2 1 1 1.2 2.5.5 4-.7 1.5-2 2.5-4 2.5-2 0-3.8-.7-5-2l2-2.5c1 1 2 1.5 3 1.5 1.5 0 2.5-.6 3-1.5s.5-2-.5-3c-1-1-2.5-1.5-4-2-2-.5-3.5-1.2-4.5-2.5-1-1.3-1.5-3-.5-5S14.5 5 17 5c2.5 0 4.5.7 6 2l-2 2.5c-1-1.3-2.5-2-4-2zM11 24h10l-2 2.5H13z" fill="url(#g)"/>
</svg>
